<?xml version="1.0" encoding="UTF-8" standalone="no"?>
<!-- Created with Inkscape (http://www.inkscape.org/) -->

<svg
   xmlns:dc="http://purl.org/dc/elements/1.1/"
   xmlns:cc="http://creativecommons.org/ns#"
   xmlns:rdf="http://www.w3.org/1999/02/22-rdf-syntax-ns#"
   xmlns:svg="http://www.w3.org/2000/svg"
   xmlns="http://www.w3.org/2000/svg"
   xmlns:xlink="http://www.w3.org/1999/xlink"
   xmlns:sodipodi="http://sodipodi.sourceforge.net/DTD/sodipodi-0.dtd"
   xmlns:inkscape="http://www.inkscape.org/namespaces/inkscape"
   width="1920"
   height="1080"
   viewBox="0 0 1920 1080"
   id="svg2"
   version="1.1"
   inkscape:version="0.91 r13725"
   inkscape:export-filename="/Users/aviram/rect4136.png"
   inkscape:export-xdpi="90"
   inkscape:export-ydpi="90"
   sodipodi:docname="template.svg">
  <title
     id="title4154">Audio presentation</title>
  <defs
     id="defs4" />
  <sodipodi:namedview
     id="base"
     bordercolor="#666666"
     borderopacity="1.0"
     inkscape:pageopacity="0"
     inkscape:pageshadow="2"
     inkscape:document-units="px"
     inkscape:current-layer="layer1"
     showgrid="false"
     units="px"
     inkscape:zoom="0.58125"
     inkscape:cx="954.11937"
     inkscape:cy="517.62605"
     inkscape:window-width="1680"
     inkscape:window-height="1001"
     inkscape:window-x="0"
     inkscape:window-y="1"
     inkscape:window-maximized="1" />
  <metadata
     id="metadata7">
    <rdf:RDF>
      <cc:Work
         rdf:about="">
        <dc:format>image/svg+xml</dc:format>
        <dc:type
           rdf:resource="http://purl.org/dc/dcmitype/StillImage" />
        <dc:title>Audio presentation</dc:title>
        <dc:date>2017-01-30</dc:date>
        <dc:creator>
          <cc:Agent>
            <dc:title>Avi Alkalay</dc:title>
          </cc:Agent>
        </dc:creator>
        <dc:rights>
          <cc:Agent>
            <dc:title>CC-BY</dc:title>
          </cc:Agent>
        </dc:rights>
        <dc:publisher>
          <cc:Agent>
            <dc:title>Avi Alkalay</dc:title>
          </cc:Agent>
        </dc:publisher>
        <cc:license
           rdf:resource="http://creativecommons.org/licenses/by-sa/3.0/" />
      </cc:Work>
      <cc:license
         rdf:about="http://creativecommons.org/licenses/by-sa/3.0/">
        <cc:permits
           rdf:resource="http://creativecommons.org/ns#Reproduction" />
        <cc:permits
           rdf:resource="http://creativecommons.org/ns#Distribution" />
        <cc:requires
           rdf:resource="http://creativecommons.org/ns#Notice" />
        <cc:requires
           rdf:resource="http://creativecommons.org/ns#Attribution" />
        <cc:permits
           rdf:resource="http://creativecommons.org/ns#DerivativeWorks" />
        <cc:requires
           rdf:resource="http://creativecommons.org/ns#ShareAlike" />
      </cc:license>
    </rdf:RDF>
  </metadata>
  <g
     inkscape:label="Layer 1"
     inkscape:groupmode="layer"
     id="layer1">
    <rect
       style="opacity:1;fill:#000000;fill-opacity:1;fill-rule:nonzero;stroke:none;stroke-width:5;stroke-linecap:round;stroke-linejoin:round;stroke-miterlimit:4;stroke-dasharray:none;stroke-dashoffset:0;stroke-opacity:1"
       id="rect4148"
       width="1920"
       height="1080"
       x="0"
       sodipodi:insensitive="true"
       y="0" />
    <flowRoot
       xml:space="preserve"
       id="flowRoot4138"
       style="fill:black;stroke:none;stroke-opacity:1;stroke-width:1px;stroke-linejoin:miter;stroke-linecap:butt;fill-opacity:1;font-family:Arial;font-style:normal;font-weight:normal;font-size:40px;line-height:125%;letter-spacing:0px;word-spacing:0px;-inkscape-font-specification:Arial;font-stretch:normal;font-variant:normal"><flowRegion
         id="flowRegion4140"><rect
           id="rect4142"
           width="531.42859"
           height="345.71429"
           x="1011.4286"
           y="314.28571" /></flowRegion><flowPara
         id="flowPara4144" /></flowRoot>    <path
       id="path4299"
       d="m 1135.7105,738.34762 c -7.2271,-4.95464 -14.8333,-8.6626 -20.3329,-8.6626 l -6.4255,30.07419 c 3.6122,0.26335 6.9611,1.46904 9.7871,3.39733 l 16.9713,-24.80892 z m -41.5616,41.33777 c 0,7.36342 5.9696,13.33341 13.3334,13.33341 7.3642,0 13.3334,-5.96962 13.3334,-13.33341 0,-7.36379 -5.9692,-13.33341 -13.3334,-13.33341 -7.3635,0 -13.3334,5.96962 -13.3334,13.33341 z m 13.3334,-3.33363 c 1.8411,0 3.3336,1.4925 3.3336,3.33326 0,1.84076 -1.4925,3.33326 -3.3336,3.33326 -1.8408,0 -3.3332,-1.49212 -3.3332,-3.33326 0,-1.84076 1.4924,-3.33326 3.3332,-3.33326 z m -19.9996,3.33363 c 0,-10.151 7.5691,-18.51525 17.3673,-19.80698 l -3.9776,-29.78479 c -24.4856,3.23791 -43.3901,24.22153 -43.3901,49.59177 0,10.47989 3.2331,20.11428 8.7431,28.14814 l 24.7165,-16.90802 c -2.1816,-3.20401 -3.4592,-7.07215 -3.4592,-11.24012 z m 61.2573,-28.30793 -24.7955,16.96204 c 2.227,3.22487 3.5381,7.13024 3.5381,11.34589 0,11.04568 -8.9542,19.99993 -20.0003,19.99993 -4.2078,0 -8.1072,-1.30589 -11.3288,-3.52546 l -16.8987,24.70277 c 8.0335,5.50962 17.7476,8.82239 28.2275,8.82239 27.6166,0 50,-22.38376 50,-50 0,-10.47989 -3.2331,-20.27406 -8.7423,-28.30756 z"
       style="clip-rule:evenodd;fill:#e0e0e0;fill-opacity:1;fill-rule:evenodd"
       inkscape:connector-curvature="0" />
    <path
       id="path4367"
       style="fill:#e0e0e0;fill-opacity:1"
       d="m 1088.7322,569.34623 c 6.9064,0 12.5,-5.59369 12.5,-12.50002 l 0,-37.50008 c 0,-6.90632 -5.5938,-12.50002 -12.5,-12.50002 -6.9061,0 -12.5,5.5937 -12.5,12.50002 l 0,37.50008 c 0,6.90613 5.5937,12.50002 12.5,12.50002 z m 28.125,-25.00004 c -1.7187,0 -3.125,1.39994 -3.125,3.12495 l 0,9.37507 c 0,16.41256 -12.5875,25.00005 -25,25.00005 -12.0437,0 -25,-7.82508 -25,-25.00005 l 0,-9.37507 c 0,-1.72501 -1.4,-3.12495 -3.1249,-3.12495 -1.7251,0 -3.125,1.39994 -3.125,3.12495 l 0,9.37507 c 0,17.74998 11.7686,28.16257 25,30.64999 l 0,13.1 -9.3751,0 c -1.725,0 -3.1249,1.40624 -3.1249,3.12496 0,1.71871 1.3999,3.12495 3.1249,3.12495 l 31.25,0 c 1.7187,0 3.125,-1.40624 3.125,-3.12495 0,-1.71872 -1.4063,-3.12496 -3.125,-3.12496 l -9.3751,0 0,-13.13757 c 13.0188,-2.57492 25.0001,-13.11868 25.0001,-30.61262 l 0,-9.37507 c 0,-1.72481 -1.4062,-3.12475 -3.125,-3.12475 z"
       inkscape:connector-curvature="0" />
    <flowRoot
       xml:space="preserve"
       id="flow-name-root"
       style="font-style:normal;font-variant:normal;font-weight:normal;font-stretch:normal;font-size:40px;line-height:125%;font-family:Arial;-inkscape-font-specification:Arial;letter-spacing:0px;word-spacing:0px;fill:#000000;fill-opacity:1;stroke:none;stroke-width:1px;stroke-linecap:butt;stroke-linejoin:miter;stroke-opacity:1"
       transform="translate(-17.552856,-27.637839)"><flowRegion
         id="flowRegion4492"><rect
           id="flow-name-box"
           width="761.65503"
           height="335.37064"
           x="1078.8429"
           y="160.76118" /></flowRegion><flowPara
         id="flow-name-text"
         style="font-style:italic;font-variant:normal;font-weight:normal;font-stretch:normal;font-size:60px;font-family:Arial;-inkscape-font-specification:'Arial Italic';fill:#ffff7b;fill-opacity:1">{NAME}</flowPara><flowPara
         style="font-style:normal;font-variant:normal;font-weight:normal;font-stretch:normal;font-size:30px;font-family:Arial;-inkscape-font-specification:Arial;fill:#ffffff;fill-opacity:1"
         id="flowPara4234">{COMPOSER}</flowPara></flowRoot>    <flowRoot
       xml:space="preserve"
       id="flow-artist-root"
       style="font-style:normal;font-variant:normal;font-weight:normal;font-stretch:normal;font-size:40px;line-height:125%;font-family:Arial;-inkscape-font-specification:Arial;letter-spacing:0px;word-spacing:0px;fill:#ffffff;fill-opacity:1;stroke:none;stroke-width:1px;stroke-linecap:butt;stroke-linejoin:miter;stroke-opacity:1"
       transform="translate(46,-43.973979)"><flowRegion
         id="flow-artist-box"><rect
           id="rect4502"
           width="638.41638"
           height="177.78687"
           x="1165.7161"
           y="540.57855"
           style="fill:#ffffff;fill-opacity:1" /></flowRegion><flowPara
         id="flow-artist-text">{ARTIST}</flowPara></flowRoot>    <flowRoot
       transform="translate(46,178.86493)"
       style="font-style:normal;font-variant:normal;font-weight:normal;font-stretch:normal;font-size:40px;line-height:125%;font-family:Arial;-inkscape-font-specification:Arial;letter-spacing:0px;word-spacing:0px;fill:#ffffff;fill-opacity:1;stroke:none;stroke-width:1px;stroke-linecap:butt;stroke-linejoin:miter;stroke-opacity:1"
       id="flow-album-root"
       xml:space="preserve"><flowRegion
         id="flow-album-box"><rect
           style="fill:#ffffff;fill-opacity:1"
           y="540.57855"
           x="1165.7161"
           height="177.78687"
           width="638.41638"
           id="rect4510" /></flowRegion><flowPara
         id="flow-album-text">{ALBUM}</flowPara></flowRoot>    <image
       xlink:href="{COVER_ART_PATH}"
       width="800"
       height="800"
       preserveAspectRatio="xMaxYMin meet"
       id="cover-art"
       x="140"
       y="115" />
  </g>
</svg>
